<mxfile host="app.diagrams.net" modified="2023-10-14T00:23:54.717Z" agent="Mozilla/5.0 (Windows NT 10.0; Win64; x64) AppleWebKit/537.36 (KHTML, like Gecko) Chrome/116.0.0.0 Safari/537.36" version="22.0.4" etag="GKkAXUp0v1Q_MCz0tWdR" type="github">
  <diagram name="PÃ¡gina-1" id="RVKXWNZxPpr6Yc6Sv1PD">
    <mxGraphModel>
      <root>
        <mxCell id="0" />
        <mxCell id="1" parent="0" />
      </root>
    </mxGraphModel>
  </diagram>
</mxfile>
